<svg xmlns="http://www.w3.org/2000/svg" viewBox="0 0 64 64" width="64" height="64" fill="none">
  <defs>
    <linearGradient id="shieldGrad" x1="0%" y1="0%" x2="100%" y2="100%">
      <stop offset="0%" stop-color="#1D4ED8"/>
      <stop offset="100%" stop-color="#06B6D4"/>
    </linearGradient>
  </defs>
  <!-- Rounded background -->
  <rect x="2" y="2" rx="12" ry="12" width="60" height="60" fill="url(#shieldGrad)"/>
  <!-- Shield body (scaled to fit 64x64) -->
  <path d="M16 22c0-2 1.6-3.5 3.5-3.5h25c0.8 0 1.5 0.4 1.9 1.1l4 6.5c0.3 0.5 0.5 1.1 0.5 1.7v15.4c0 5.2-2.5 10.1-6.7 13.3L32 64l-12.2-9.5C15.5 51.2 13 46.3 13 41.1V22z" fill="white" fill-opacity="0.25"/>
  <path d="M14 20c0-2.2 1.8-4 4-4h28c0.9 0 1.8 0.5 2.2 1.3l4.5 7.5c0.4 0.6 0.6 1.3 0.6 2v17c0 5.8-2.8 11.3-7.5 14.8L32 68l-13.6-10.5C13.7 54.1 11 48.6 11 42.8V20z" fill="white" fill-opacity="0.15"/>
  <!-- Checkmark -->
  <path d="M21 37l7 6 15-17" stroke="white" stroke-width="3.5" stroke-linecap="round" stroke-linejoin="round"/>
  <!-- DMS text -->
  <text x="32" y="35" fill="white" font-family="Inter, Arial, sans-serif" font-size="10" font-weight="800" text-anchor="middle" letter-spacing="-0.5">DMS</text>
</svg>
